<svg xmlns="http://www.w3.org/2000/svg" viewBox="0 0 64 64" role="img" aria-label="mdc">
  <rect x="0" y="0" width="64" height="64" rx="16" fill="#e8e2d8"/>
  <g transform="translate(-3.4 0)">
    <path
      d="M10.5 47V20h8.4v4.2c2.8-3.5 6.3-5.2 10.4-5.2 4.7 0 8 2 9.8 6 3-4 6.8-6 11.4-6 6.3 0 9.5 3.9 9.5 11.6V47h-9.2V31.8c0-3.3-1.4-5-4.1-5-2.5 0-4.7 1.5-6.5 4.5V47h-9.2V31.8c0-3.3-1.4-5-4.1-5-2.5 0-4.7 1.5-6.5 4.5V47z"
      fill="#1d1a15"
    />
  </g>
  <circle cx="47.8" cy="16.4" r="4.8" fill="#c05621"/>
</svg>
